REM DIRINDEX 1\4,1\2\5,1\2\6,1\3\7,1\3\8
REM DIRNAME cjc124,folder01,folder02,folder03,folder04,folder05,folder06,folder07
TITLE ""
FILE "071_Day36_Check2_Phrases.mp3" MP3
  TRACK 01 AUDIO
    TITLE "0:"
    INDEX 01 00:00:00
  TRACK 02 AUDIO
    TITLE "4:cjc124_2313"
    INDEX 01 00:00:33
  TRACK 03 AUDIO
    TITLE "0:"
    INDEX 01 00:01:56
  TRACK 04 AUDIO
    TITLE "5:cjc124_2314"
    INDEX 01 00:02:18
  TRACK 05 AUDIO
    TITLE "0:"
    INDEX 01 00:04:05
  TRACK 06 AUDIO
    TITLE "6:cjc124_2315"
    INDEX 01 00:04:25
  TRACK 07 AUDIO
    TITLE "0:"
    INDEX 01 00:05:61
  TRACK 08 AUDIO
    TITLE "5:cjc124_2316"
    INDEX 01 00:06:33
  TRACK 09 AUDIO
    TITLE "0:"
    INDEX 01 00:08:09
  TRACK 10 AUDIO
    TITLE "6:cjc124_2317"
    INDEX 01 00:08:26
  TRACK 11 AUDIO
    TITLE "0:"
    INDEX 01 00:09:65
  TRACK 12 AUDIO
    TITLE "5:cjc124_2318"
    INDEX 01 00:10:33
  TRACK 13 AUDIO
    TITLE "0:"
    INDEX 01 00:12:26
  TRACK 14 AUDIO
    TITLE "6:cjc124_2319"
    INDEX 01 00:12:44
  TRACK 15 AUDIO
    TITLE "0:"
    INDEX 01 00:14:39
  TRACK 16 AUDIO
    TITLE "5:cjc124_2320"
    INDEX 01 00:15:01
  TRACK 17 AUDIO
    TITLE "0:"
    INDEX 01 00:16:63
  TRACK 18 AUDIO
    TITLE "6:cjc124_2321"
    INDEX 01 00:17:18
  TRACK 19 AUDIO
    TITLE "0:"
    INDEX 01 00:18:66
  TRACK 20 AUDIO
    TITLE "5:cjc124_2322"
    INDEX 01 00:19:28
  TRACK 21 AUDIO
    TITLE "0:"
    INDEX 01 00:20:65
  TRACK 22 AUDIO
    TITLE "6:cjc124_2323"
    INDEX 01 00:21:13
  TRACK 23 AUDIO
    TITLE "0:"
    INDEX 01 00:22:32
  TRACK 24 AUDIO
    TITLE "5:cjc124_2324"
    INDEX 01 00:22:72
  TRACK 25 AUDIO
    TITLE "0:"
    INDEX 01 00:24:57
  TRACK 26 AUDIO
    TITLE "6:cjc124_2325"
    INDEX 01 00:24:74
  TRACK 27 AUDIO
    TITLE "0:"
    INDEX 01 00:27:24
  TRACK 28 AUDIO
    TITLE "5:cjc124_2326"
    INDEX 01 00:27:61
  TRACK 29 AUDIO
    TITLE "0:"
    INDEX 01 00:29:62
  TRACK 30 AUDIO
    TITLE "6:cjc124_2327"
    INDEX 01 00:30:03
  TRACK 31 AUDIO
    TITLE "0:"
    INDEX 01 00:31:69
  TRACK 32 AUDIO
    TITLE "5:cjc124_2328"
    INDEX 01 00:32:33
  TRACK 33 AUDIO
    TITLE "0:"
    INDEX 01 00:34:18
  TRACK 34 AUDIO
    TITLE "6:cjc124_2329"
    INDEX 01 00:34:34
  TRACK 35 AUDIO
    TITLE "0:"
    INDEX 01 00:35:63
  TRACK 36 AUDIO
    TITLE "5:cjc124_2330"
    INDEX 01 00:36:27
  TRACK 37 AUDIO
    TITLE "0:"
    INDEX 01 00:38:00
  TRACK 38 AUDIO
    TITLE "6:cjc124_2331"
    INDEX 01 00:38:20
  TRACK 39 AUDIO
    TITLE "0:"
    INDEX 01 00:39:58
  TRACK 40 AUDIO
    TITLE "5:cjc124_2332"
    INDEX 01 00:40:28
  TRACK 41 AUDIO
    TITLE "0:"
    INDEX 01 00:41:69
  TRACK 42 AUDIO
    TITLE "6:cjc124_2333"
    INDEX 01 00:42:19
  TRACK 43 AUDIO
    TITLE "0:"
    INDEX 01 00:44:16
  TRACK 44 AUDIO
    TITLE "5:cjc124_2334"
    INDEX 01 00:44:52
  TRACK 45 AUDIO
    TITLE "0:"
    INDEX 01 00:46:68
  TRACK 46 AUDIO
    TITLE "6:cjc124_2335"
    INDEX 01 00:47:25
  TRACK 47 AUDIO
    TITLE "0:"
    INDEX 01 00:49:45
  TRACK 48 AUDIO
    TITLE "5:cjc124_2336"
    INDEX 01 00:50:15
  TRACK 49 AUDIO
    TITLE "0:"
    INDEX 01 00:51:67
  TRACK 50 AUDIO
    TITLE "6:cjc124_2337"
    INDEX 01 00:52:24
  TRACK 51 AUDIO
    TITLE "0:"
    INDEX 01 00:54:09
  TRACK 52 AUDIO
    TITLE "5:cjc124_2338"
    INDEX 01 00:54:46
  TRACK 53 AUDIO
    TITLE "0:"
    INDEX 01 00:56:65
  TRACK 54 AUDIO
    TITLE "6:cjc124_2339"
    INDEX 01 00:57:13
  TRACK 55 AUDIO
    TITLE "0:"
    INDEX 01 00:59:06
  TRACK 56 AUDIO
    TITLE "5:cjc124_2340"
    INDEX 01 00:59:45
  TRACK 57 AUDIO
    TITLE "0:"
    INDEX 01 01:01:15
  TRACK 58 AUDIO
    TITLE "6:cjc124_2341"
    INDEX 01 01:01:33
  TRACK 59 AUDIO
    TITLE "0:"
    INDEX 01 01:02:59
  TRACK 60 AUDIO
    TITLE "5:cjc124_2342"
    INDEX 01 01:03:20
  TRACK 61 AUDIO
    TITLE "0:"
    INDEX 01 01:05:44
  TRACK 62 AUDIO
    TITLE "6:cjc124_2343"
    INDEX 01 01:05:69
  TRACK 63 AUDIO
    TITLE "0:"
    INDEX 01 01:08:60
  TRACK 64 AUDIO
    TITLE "5:cjc124_2344"
    INDEX 01 01:09:22
  TRACK 65 AUDIO
    TITLE "0:"
    INDEX 01 01:11:05
  TRACK 66 AUDIO
    TITLE "6:cjc124_2345"
    INDEX 01 01:11:31
  TRACK 67 AUDIO
    TITLE "0:"
    INDEX 01 01:12:71
